<svg width="115" height="26" viewBox="0 0 115 26" fill="none" xmlns="http://www.w3.org/2000/svg">
<path d="M6.67188 25.2188C4.93099 25.2188 3.52734 24.6764 2.46094 23.5918C1.40365 22.5072 0.875 20.9896 0.875 19.0391V7.9375C0.875 5.60417 1.33529 3.81771 2.25586 2.57812C3.18555 1.33854 4.69401 0.71875 6.78125 0.71875C7.92057 0.71875 8.93229 0.928385 9.81641 1.34766C10.7096 1.76693 11.4115 2.39583 11.9219 3.23438C12.4323 4.0638 12.6875 5.11198 12.6875 6.37891V10.5352H7.90234V6.98047C7.90234 6.26042 7.8112 5.77734 7.62891 5.53125C7.44661 5.27604 7.16406 5.14844 6.78125 5.14844C6.33464 5.14844 6.03385 5.3125 5.87891 5.64062C5.72396 5.95964 5.64648 6.38802 5.64648 6.92578V18.9707C5.64648 19.6361 5.74219 20.1055 5.93359 20.3789C6.13411 20.6523 6.41667 20.7891 6.78125 20.7891C7.19141 20.7891 7.47852 20.6204 7.64258 20.2832C7.81576 19.946 7.90234 19.5085 7.90234 18.9707V14.6367H12.7422V19.1895C12.7422 21.304 12.209 22.8398 11.1426 23.7969C10.0762 24.7448 8.58594 25.2188 6.67188 25.2188ZM13.8555 25V0.9375H18.668V20.8984H23.6172V25H13.8555ZM24.2656 25V0.9375H28.9141V25H24.2656ZM35.9336 25.2188C34.1927 25.2188 32.7891 24.6764 31.7227 23.5918C30.6654 22.5072 30.1367 20.9896 30.1367 19.0391V7.9375C30.1367 5.60417 30.597 3.81771 31.5176 2.57812C32.4473 1.33854 33.9557 0.71875 36.043 0.71875C37.1823 0.71875 38.194 0.928385 39.0781 1.34766C39.9714 1.76693 40.6732 2.39583 41.1836 3.23438C41.694 4.0638 41.9492 5.11198 41.9492 6.37891V10.5352H37.1641V6.98047C37.1641 6.26042 37.0729 5.77734 36.8906 5.53125C36.7083 5.27604 36.4258 5.14844 36.043 5.14844C35.5964 5.14844 35.2956 5.3125 35.1406 5.64062C34.9857 5.95964 34.9082 6.38802 34.9082 6.92578V18.9707C34.9082 19.6361 35.0039 20.1055 35.1953 20.3789C35.3958 20.6523 35.6784 20.7891 36.043 20.7891C36.4531 20.7891 36.7402 20.6204 36.9043 20.2832C37.0775 19.946 37.1641 19.5085 37.1641 18.9707V14.6367H42.0039V19.1895C42.0039 21.304 41.4707 22.8398 40.4043 23.7969C39.3379 24.7448 37.8477 25.2188 35.9336 25.2188ZM43.1172 25V0.9375H47.875V10.5762L50.1172 0.9375H54.957L52.2637 11.957L55.5176 25H50.5273L47.9023 13.3516V25H43.1172ZM61.457 25.2188C59.7161 25.2188 58.3125 24.6764 57.2461 23.5918C56.1888 22.5072 55.6602 20.9896 55.6602 19.0391V7.9375C55.6602 5.60417 56.1204 3.81771 57.041 2.57812C57.9707 1.33854 59.4792 0.71875 61.5664 0.71875C62.7057 0.71875 63.7174 0.928385 64.6016 1.34766C65.4948 1.76693 66.1966 2.39583 66.707 3.23438C67.2174 4.0638 67.4727 5.11198 67.4727 6.37891V10.5352H62.6875V6.98047C62.6875 6.26042 62.5964 5.77734 62.4141 5.53125C62.2318 5.27604 61.9492 5.14844 61.5664 5.14844C61.1198 5.14844 60.819 5.3125 60.6641 5.64062C60.5091 5.95964 60.4316 6.38802 60.4316 6.92578V18.9707C60.4316 19.6361 60.5273 20.1055 60.7188 20.3789C60.9193 20.6523 61.2018 20.7891 61.5664 20.7891C61.9766 20.7891 62.2637 20.6204 62.4277 20.2832C62.6009 19.946 62.6875 19.5085 62.6875 18.9707V14.6367H67.5273V19.1895C67.5273 21.304 66.9941 22.8398 65.9277 23.7969C64.8613 24.7448 63.3711 25.2188 61.457 25.2188ZM68.6406 25V0.9375H76.0234C77.2539 0.9375 78.1836 1.22005 78.8125 1.78516C79.4414 2.34115 79.8607 3.125 80.0703 4.13672C80.2891 5.13932 80.3984 6.31966 80.3984 7.67773C80.3984 8.99023 80.2298 10.0384 79.8926 10.8223C79.5645 11.6061 78.9401 12.1484 78.0195 12.4492C78.776 12.6042 79.3047 12.9824 79.6055 13.584C79.9154 14.1764 80.0703 14.9466 80.0703 15.8945V25H75.3262V15.5801C75.3262 14.8783 75.1803 14.4453 74.8887 14.2812C74.6061 14.1081 74.1458 14.0215 73.5078 14.0215V25H68.6406ZM73.5352 9.85156H74.6973C75.3626 9.85156 75.6953 9.12695 75.6953 7.67773C75.6953 6.73893 75.6224 6.1237 75.4766 5.83203C75.3307 5.54036 75.0573 5.39453 74.6562 5.39453H73.5352V9.85156ZM80.8281 25L83.1523 0.9375H91.3145L93.5977 25H89.0449L88.7031 21.1172H85.8047L85.5039 25H80.8281ZM86.1465 17.2754H88.334L87.2812 5.03906H87.0625L86.1465 17.2754ZM96.2832 25V5.55859H93.4258V0.9375H103.953V5.55859H101.096V25H96.2832ZM104.793 25V0.9375H114.418V5.58594H109.688V10.2754H114.227V14.8008H109.688V20.3105H114.732V25H104.793Z" fill="#F5F7FB"/>
</svg>
